<?xml version="1.0" encoding="UTF-8" standalone="no"?>
<!-- Created with Inkscape (http://www.inkscape.org/) -->
<svg
   xmlns:svg="http://www.w3.org/2000/svg"
   xmlns="http://www.w3.org/2000/svg"
   version="1.0"
   width="24.886"
   height="41.75"
   id="svg1533">
  <defs
     id="defs1536" />
  <g
     transform="translate(-427.1495,-34.28441)"
     id="g12994">
    <path
       d="M 431.56955,65.847427 C 428.17371,67.667397 426.36427,70.961977 427.47733,73.440387 C 428.66459,76.084027 432.74434,76.830107 436.58391,75.105757 C 440.42347,73.381397 442.57607,69.836357 441.38881,67.192727 C 440.20154,64.549087 436.1218,63.803007 432.28223,65.527357 C 432.04226,65.635127 431.79595,65.726097 431.56955,65.847427 z "
       style="opacity:0.9;fill:#ffffff;fill-opacity:1;fill-rule:evenodd;stroke:none;stroke-width:0.2;stroke-miterlimit:4;stroke-dashoffset:0;stroke-opacity:1"
       id="path12112" />
    <path
       d="M 441.18705,68.62194 L 441.18705,35.03437"
       style="fill:none;fill-opacity:0.75;fill-rule:evenodd;stroke:#ffffff;stroke-width:1.5;stroke-linecap:butt;stroke-linejoin:miter;stroke-miterlimit:4;stroke-dasharray:none;stroke-opacity:1"
       id="path12114" />
    <path
       d="M 441.1824,35.99421 C 440.6199,42.30671 446.02495,44.56795 448.6824,47.49421 C 451.20836,50.27568 452.13107,53.48393 452.02788,56.48981 C 452.00033,57.29238 451.78245,60.76992 449.41343,64.25653 C 452.58135,55.50942 449.6319,51.99847 446.75047,49.20495 C 443.26053,45.82149 440.66435,42.63277 441.1824,35.99421 z "
       style="fill:#ffffff;fill-opacity:1;fill-rule:evenodd;stroke:none;stroke-width:1px;stroke-linecap:butt;stroke-linejoin:miter;stroke-opacity:1"
       id="path12116" />
  </g>
</svg>
