<?xml version="1.0" encoding="UTF-8" standalone="no"?>
<!-- Created with Inkscape (http://www.inkscape.org/) -->
<svg
   xmlns:svg="http://www.w3.org/2000/svg"
   xmlns="http://www.w3.org/2000/svg"
   version="1.0"
   width="24.386"
   height="45"
   id="svg1572">
  <defs
     id="defs1575" />
  <g
     transform="translate(-393.8446,-234.1771)"
     id="g16559">
    <path
       d="M 398.2646,268.99008 C 394.86876,270.81005 393.05932,274.10463 394.17238,276.58304 C 395.35964,279.22668 399.43939,279.97276 403.27896,278.24841 C 407.11852,276.52405 409.27112,272.97901 408.08386,270.33538 C 406.89659,267.69174 402.81685,266.94566 398.97728,268.67001 C 398.73731,268.77778 398.491,268.86875 398.2646,268.99008 z "
       style="opacity:0.9;fill:#ffffff;fill-opacity:1;fill-rule:evenodd;stroke:none;stroke-width:0.2;stroke-miterlimit:4;stroke-dashoffset:0;stroke-opacity:1"
       id="path16482" />
    <path
       d="M 407.8821,271.76459 L 407.8821,234.92702"
       style="fill:none;fill-opacity:0.75;fill-rule:evenodd;stroke:#ffffff;stroke-width:1.5;stroke-linecap:butt;stroke-linejoin:miter;stroke-miterlimit:4;stroke-dasharray:none;stroke-opacity:1"
       id="path16484" />
    <path
       d="M 407.37745,235.63686 C 406.81495,241.94936 412.22,244.2106 414.87745,247.13686 C 417.40341,249.91833 418.32612,253.12658 418.22293,256.13246 C 418.19538,256.93503 417.9775,260.41257 415.60848,263.89918 C 418.7764,255.15207 415.82695,251.64112 412.94552,248.8476 C 409.45558,245.46414 406.8594,242.27542 407.37745,235.63686 z "
       style="fill:#ffffff;fill-opacity:1;fill-rule:evenodd;stroke:none;stroke-width:1px;stroke-linecap:butt;stroke-linejoin:miter;stroke-opacity:1"
       id="path16486" />
    <path
       d="M 407.14399,241.67087 C 406.58149,247.98337 411.98654,250.24461 414.64399,253.17087 C 417.16995,255.95234 418.09266,259.16059 417.98947,262.16647 C 417.96192,262.96904 417.74404,266.44658 415.37502,269.93319 C 418.54294,261.18608 415.59349,257.67513 412.71206,254.88161 C 409.22212,251.49815 406.62594,248.30943 407.14399,241.67087 z "
       style="fill:#ffffff;fill-opacity:1;fill-rule:evenodd;stroke:none;stroke-width:1px;stroke-linecap:butt;stroke-linejoin:miter;stroke-opacity:1"
       id="path16488" />
  </g>
</svg>
