<?xml version="1.0" encoding="UTF-8" standalone="no"?>
<!-- Created with Inkscape (http://www.inkscape.org/) -->
<svg
   xmlns:svg="http://www.w3.org/2000/svg"
   xmlns="http://www.w3.org/2000/svg"
   version="1.0"
   width="19.5"
   height="11.003"
   id="svg1437">
  <defs
     id="defs1440" />
  <path
     d="M 9.125,0.0030002594 C 4.03428,0.18520026 0,2.5856003 0,5.5030003 C 0,8.5390003 4.368,11.003 9.75,11.003 C 15.132,11.003 19.5,8.5390003 19.5,5.5030003 C 19.5,2.4670003 15.132,0.0030002594 9.75,0.0030002594 C 9.53977,0.0030002594 9.33194,-0.0043997406 9.125,0.0030002594 z M 7.5,1.0655003 C 8.8579,0.92650026 10.56798,1.5561003 12,2.8467003 C 14.14502,4.7799003 14.87122,7.4906003 13.625,8.9092003 L 13.59375,8.9405003 C 12.32289,10.3506 9.53145,9.9153003 7.375,7.9717003 C 5.21855,6.0282003 4.51039,3.2881003 5.78125,1.8780003 C 6.20818,1.4043003 6.81306,1.1358003 7.5,1.0655003 z "
     style="opacity:0.9;fill:#ffffff;fill-opacity:1;fill-rule:nonzero;stroke:none;stroke-width:0.2;stroke-miterlimit:4;stroke-dasharray:none;stroke-dashoffset:0;stroke-opacity:1"
     id="path3937" />
</svg>
