<?xml version="1.0" encoding="UTF-8" standalone="no"?>
<!-- Created with Inkscape (http://www.inkscape.org/) -->
<svg
   xmlns:svg="http://www.w3.org/2000/svg"
   xmlns="http://www.w3.org/2000/svg"
   version="1.0"
   width="14.566"
   height="41.919998"
   id="svg1463">
  <defs
     id="defs1466" />
  <g
     transform="matrix(-1,0,0,-1,247.8306,258.8548)"
     id="g10997">
    <path
       d="M 237.68484,218.18353 C 234.289,220.0035 232.47956,223.29808 233.59262,225.77649 C 234.77988,228.42013 238.85963,229.16621 242.6992,227.44186 C 246.53876,225.7175 248.69136,222.17246 247.5041,219.52883 C 246.31683,216.88519 242.23709,216.13911 238.39752,217.86346 C 238.15755,217.97123 237.91124,218.0622 237.68484,218.18353 z M 238.79457,220.42569 C 239.0358,220.30136 239.28005,220.20766 239.53576,220.09282 C 242.80883,218.62288 245.96997,218.55375 246.59187,219.93851 C 247.21377,221.32327 245.06209,223.64013 241.78902,225.11008 C 238.51594,226.58002 235.3548,226.64915 234.73291,225.26439 C 234.15959,223.98781 235.94804,221.89278 238.79457,220.42569 z "
       style="opacity:0.9;fill:#ffffff;fill-opacity:1;fill-rule:evenodd;stroke:none;stroke-width:0.2;stroke-miterlimit:4;stroke-dasharray:none;stroke-dashoffset:0;stroke-opacity:1"
       id="path10999" />
    <path
       d="M 234.05234,224.51692 L 234.05234,258.10449"
       style="fill:none;fill-opacity:0.75;fill-rule:evenodd;stroke:#ffffff;stroke-width:1.5;stroke-linecap:butt;stroke-linejoin:miter;stroke-miterlimit:4;stroke-dasharray:none;stroke-opacity:1"
       id="path11001" />
  </g>
</svg>
